# xmcd
#
# Track frame offsets: 
#        150
#        13495
#        27442
#        40032
#        53982
#        68390
#        82762
#        98167
#        111500
#        148007
#        159990
#        175009
#        186682
#        201250
#        216702
#        230402
#
# Disc length: 3279 seconds
#
# Revision: 5
# Processed by: cddbd v1.5.2PL0 Copyright (c) Steve Scherf et al.
# Submitted via: ExactAudioCopy v0.99pb4
#
DISCID=e50ccd10
DTITLE=Frank Sinatra - 16 Most Requested Songs
DYEAR=1995
DGENRE=Vocal
TTITLE0=All Or Nothing At All
TTITLE1=You'll Never Know
TTITLE2=Saturday Night (Is The Loneliest Night In The Week)
TTITLE3=Dream (When You're Feeling Blue)
TTITLE4=Put Your Dreams Away (For Another Day)
TTITLE5=Day By Day
TTITLE6=Nancy (With The Laughing Face)
TTITLE7=Oh! What It Seemed To Be
TTITLE8=Soliloquy (Parts 1 and 2)
TTITLE9=Five Minutes More
TTITLE10=The Things We Did Last Summer
TTITLE11=The Coffee Song (They've Got An Awful Lot Of Coffee In Brazil
TTITLE11=)
TTITLE12=Time After Time
TTITLE13=Mam'selle
TTITLE14=Fools Rush In
TTITLE15=Birth Of The Blues
EXTD=
EXTT0=
EXTT1=
EXTT2=
EXTT3=
EXTT4=
EXTT5=
EXTT6=
EXTT7=
EXTT8=
EXTT9=
EXTT10=
EXTT11=
EXTT12=
EXTT13=
EXTT14=
EXTT15=
PLAYORDER=
